<?xml version="1.0" encoding="utf-8"?>
<!-- Svg Vector Icons : http://www.onlinewebfonts.com/icon -->
<!DOCTYPE svg PUBLIC "-//W3C//DTD SVG 1.1//EN" "http://www.w3.org/Graphics/SVG/1.1/DTD/svg11.dtd">
<svg version="1.1" xmlns="http://www.w3.org/2000/svg" xmlns:xlink="http://www.w3.org/1999/xlink" x="0px" y="0px" viewBox="0 0 1000 1000" enable-background="new 0 0 1000 1000" xml:space="preserve">
<metadata> Svg Vector Icons : http://www.onlinewebfonts.com/icon </metadata>
<g><g transform="translate(0.000000,511.000000) scale(0.100000,-0.100000)"><path d="M3429.6,4999.5c-132.8-31.3-339.9-154.3-431.7-255.9c-181.7-203.2-273.5-486.4-259.8-818.5c5.9-162.1,15.6-203.2,70.3-314.5c76.2-156.3,216.8-291.1,380.9-367.3c230.5-109.4,351.6-117.2,1603.8-117.2h1136.9l97.7-48.8c52.7-25.4,166-117.2,252-205.1l156.3-156.3L3337.8-386.2C-49.5-3775.5,159.5-3550.9,110.7-3836.1c-44.9-261.8,54.7-552.8,250-732.6c267.6-244.2,619.3-295,947.4-136.7c117.2,56.7,361.4,295,3217.4,3151L7617.9,1534l138.7-136.7c76.2-76.2,162.1-175.8,189.5-224.6l52.7-87.9L8010.5-146c9.8-1068.6,15.6-1246.3,44.9-1355.7c121.1-463,478.6-705.2,955.2-644.6c402.4,50.8,674,230.5,820.5,541.1c56.7,119.2,62.5,150.4,68.4,355.5c9.8,353.6-127,3330.7-160.2,3449.8c-48.8,181.7-130.9,302.8-384.8,564.6l-246.2,253.9l113.3,134.8c140.7,166,195.4,300.8,209,511.8c15.6,265.7-64.5,464.9-255.9,648.5c-128.9,121.1-232.5,173.9-410.2,211c-261.8,54.7-523.5-21.5-734.5-216.8l-111.3-105.5L7694,4427.1c-123.1,123.1-273.5,259.8-338,302.8c-222.7,150.4-193.4,146.5-1947.6,222.7C3769.5,5022.9,3556.6,5028.8,3429.6,4999.5z"/></g></g>
</svg>